<mxfile host="app.diagrams.net" modified="2023-12-01T08:45:15.683Z" agent="Mozilla/5.0 (Macintosh; Intel Mac OS X 10_15_7) AppleWebKit/537.36 (KHTML, like Gecko) Chrome/119.0.0.0 Safari/537.36" version="22.1.5" etag="UXvPrkuRyMmUgZsd2FRP" type="github">
  <diagram name="第 1 页" id="cb12yK3BhZA4vU_s1sjA">
    <mxGraphModel>
      <root>
        <mxCell id="0" />
        <mxCell id="1" parent="0" />
      </root>
    </mxGraphModel>
  </diagram>
</mxfile>
